<svg width="563" height="768" viewBox="0 0 563 768" fill="none" xmlns="http://www.w3.org/2000/svg">
<path d="M447.113 352.917C592.613 207.417 23.1165 -220.464 7.11279 142.418C-2.4047 358.225 -0.601992 538.395 2.42265 648.99C4.24356 715.571 59.0485 767.418 125.654 767.418H264.696C375.978 767.418 435.815 623.504 409.738 515.321C395.707 457.111 401.172 398.858 447.113 352.917Z" fill="url(#paint0_linear_304_226)"/>
<path opacity="0.5" d="M36.113 432.5C36.113 556.488 -64.387 784 158.613 657C381.613 530 229.613 514.488 229.613 390.5C229.613 266.512 226.268 208 158.613 208C90.9581 208 36.113 308.512 36.113 432.5Z" fill="#D07A39"/>
<defs>
<linearGradient id="paint0_linear_304_226" x1="281.056" y1="0" x2="281.056" y2="767.418" gradientUnits="userSpaceOnUse">
<stop offset="0.45" stop-color="#6C3A30"/>
<stop offset="1" stop-color="#E73737"/>
</linearGradient>
</defs>
</svg>
