<svg width="563" height="768" viewBox="0 0 563 768" fill="none" xmlns="http://www.w3.org/2000/svg">
<path d="M115 352.917C-30.5 207.417 538.996 -220.464 555 142.418C564.518 358.225 562.715 538.395 559.69 648.99C557.869 715.571 503.064 767.418 436.458 767.418H297.417C186.135 767.418 126.298 623.504 152.375 515.321C166.406 457.111 160.941 398.858 115 352.917Z" fill="url(#paint0_linear_288_231)"/>
<path opacity="0.5" d="M526 432.5C526 556.488 626.5 784 403.5 657C180.5 530 332.5 514.488 332.5 390.5C332.5 266.512 335.845 208 403.5 208C471.155 208 526 308.512 526 432.5Z" fill="#D07A39"/>
<defs>
<linearGradient id="paint0_linear_288_231" x1="281.056" y1="0" x2="281.056" y2="767.418" gradientUnits="userSpaceOnUse">
<stop offset="0.45" stop-color="#6C3A30"/>
<stop offset="1" stop-color="#E73737"/>
</linearGradient>
</defs>
</svg>
