<svg width="1637" height="941" viewBox="0 0 1637 941" fill="none" xmlns="http://www.w3.org/2000/svg">
<g clip-path="url(#clip0_577_322)">
<path opacity="0.5" d="M1268.55 633.339C1131.11 939.814 710.144 1024.78 650.06 797.156C564.295 472.252 1280.37 575.077 1070.55 397.047C860.731 219.017 1480.96 -35.5108 1559.21 13.5631C1637.45 62.6369 1558.08 463.879 1268.55 633.339Z" fill="#D07A39"/>
<path d="M1586.08 736.865C1472.3 757.342 1409.21 438.581 1030.68 659.052C652.145 879.523 1177.13 852.902 1099.4 912.286" stroke="#0D0D0D" stroke-opacity="0.2" stroke-width="30"/>
<path opacity="0.6" d="M819.303 580.118C598.075 1008.52 718.828 936.341 546.154 936.341C118.36 875.624 61.1003 497.266 233.499 577.279C405.898 657.291 391.815 -245.386 546.154 186.683C700.493 618.751 1040.53 151.716 819.303 580.118Z" fill="#6C3A30"/>
<path d="M5.60156 470.084C5.60156 470.084 887.644 -68.0314 813.353 240.405C739.062 548.841 668.787 589.507 668.787 589.507L339.498 911.708" stroke="#0D0D0D" stroke-opacity="0.2" stroke-width="30"/>
<path opacity="0.7" d="M1364.36 19.7946C1051.17 1.69981 846.132 126.276 968.929 186.342C856.935 186.342 737.98 79.5887 737.98 46.4149C737.98 13.2412 856.935 0 968.929 0C1080.92 0 1677.55 37.8894 1364.36 19.7946Z" fill="#B23A36"/>
</g>
<defs>
<clipPath id="clip0_577_322">
<rect width="1637" height="941" fill="white"/>
</clipPath>
</defs>
</svg>
