<svg width="1400" height="1000" viewBox="0 0 1400 1000" fill="none" xmlns="http://www.w3.org/2000/svg">
<g clip-path="url(#clip0_404_236)">
<rect width="1400" height="1000" fill="#DBD1D1" fill-opacity="0.96"/>
<path opacity="0.6" d="M798.293 630.231C640.894 1041.96 726.807 972.593 603.953 972.593C299.587 914.239 258.848 550.603 381.506 627.502C504.164 704.402 494.144 -163.154 603.953 252.104C713.762 667.361 955.692 218.498 798.293 630.231Z" fill="#5A6684"/>
<path d="M36 689.536C36 689.536 579 311.238 533.265 528.07C487.53 744.903 444.268 773.491 444.268 773.491L241.552 1000" stroke="white" stroke-opacity="0.2" stroke-width="30"/>
<path opacity="0.3" d="M1109.97 730.846C1006.94 1012.89 735.745 1057.74 709.497 834.147C672.032 514.991 1120.48 675.983 996.765 486.926C873.051 297.869 1279.34 107.698 1326.37 161.589C1373.41 215.479 1302.25 593.489 1109.97 730.846Z" fill="#6C3A30"/>
<path d="M1355.74 835.837C1296.82 851.713 1264.15 604.587 1068.13 775.511C872.12 946.435 1143.97 925.798 1103.72 971.836" stroke="white" stroke-opacity="0.2" stroke-width="30"/>
<path opacity="0.6" d="M1055.71 154.888C893.495 131.68 787.298 291.46 850.9 368.5C792.893 368.5 731.282 231.579 731.282 189.031C731.282 146.483 792.893 129.5 850.9 129.5C908.906 129.5 1217.92 178.096 1055.71 154.888Z" fill="#9E3330"/>
</g>
<defs>
<clipPath id="clip0_404_236">
<rect width="1400" height="1000" fill="white"/>
</clipPath>
</defs>
</svg>
