<svg width="911" height="747" viewBox="0 0 911 747" fill="none" xmlns="http://www.w3.org/2000/svg">
<path d="M13.5 27.2715H708.5C719.546 27.2715 728.5 36.2258 728.5 47.2715V687.271C728.5 698.317 719.546 707.271 708.5 707.271H13.5V27.2715Z" fill="url(#paint0_linear_81_582)"/>
<path opacity="0.6" d="M388.731 443.972C290.545 757.786 344.138 704.913 267.501 704.913C77.6376 660.437 52.2245 383.281 128.739 441.892C205.253 500.504 199.002 -160.729 267.501 155.772C336 472.272 486.916 130.158 388.731 443.972Z" fill="#5A6684"/>
<path d="M11 373.771C11 373.771 402.469 -20.4108 369.497 205.526C336.525 431.463 305.335 461.252 305.335 461.252L159.19 697.271" stroke="white" stroke-opacity="0.2" stroke-width="30"/>
<path opacity="0.3" d="M578 491.771C517 716.271 330.167 778.508 303.5 611.771C265.436 373.771 583.243 449.093 490.121 318.682C397 188.271 672.273 1.8234 706.999 37.7711C741.726 73.7189 706.498 367.638 578 491.771Z" fill="#6C3A30"/>
<path d="M724.5 568.271C674 583.271 646 349.771 478 511.271C310 672.771 543 653.271 508.5 696.771" stroke="white" stroke-opacity="0.2" stroke-width="30"/>
<path opacity="0.6" d="M621.5 41.7715C482.5 28.5166 391.5 119.771 446 163.771C396.294 163.771 343.5 85.572 343.5 61.2715C343.5 36.971 396.294 27.2715 446 27.2715C495.706 27.2715 760.5 55.0264 621.5 41.7715Z" fill="#9E3330"/>
<defs>
<linearGradient id="paint0_linear_81_582" x1="371" y1="27.2715" x2="371" y2="707.271" gradientUnits="userSpaceOnUse">
<stop stop-color="#D07A39"/>
<stop offset="1" stop-color="#737373"/>
</linearGradient>
</defs>
</svg>
