<svg width="911" height="790" viewBox="0 0 911 790" fill="none" xmlns="http://www.w3.org/2000/svg">
<path d="M13.5 78.8628C13.5 51.2486 35.8858 28.8628 63.5 28.8628H708.554C719.599 28.8628 728.554 37.8171 728.554 48.8628V728.544C728.554 739.59 719.599 748.544 708.554 748.544H13.5V78.8628Z" fill="url(#paint0_linear_248_393)"/>
<path opacity="0.6" d="M388.759 469.88C290.566 802.006 344.163 746.048 267.52 746.048C77.6426 698.976 52.2276 405.647 128.748 467.679C205.268 529.71 199.016 -170.108 267.52 164.861C336.024 499.831 486.952 137.753 388.759 469.88Z" fill="#5A6684"/>
<path d="M11 395.583C11 395.583 402.498 -21.6017 369.524 217.52C336.549 456.641 305.357 488.168 305.357 488.168L159.201 737.961" stroke="white" stroke-opacity="0.2" stroke-width="30"/>
<path opacity="0.3" d="M578.042 520.469C517.038 758.07 330.191 823.938 303.522 647.471C265.455 395.583 583.286 475.3 490.157 337.279C397.029 199.258 672.322 1.92981 707.051 39.9753C741.781 78.0208 706.55 389.092 578.042 520.469Z" fill="#6C3A30"/>
<path d="M724.553 601.433C674.05 617.308 646.047 370.182 478.035 541.106C310.022 712.031 543.04 691.393 508.537 737.431" stroke="white" stroke-opacity="0.2" stroke-width="30"/>
<path opacity="0.6" d="M621.546 44.209C482.535 30.1806 391.529 126.761 446.033 173.328C396.323 173.328 343.525 90.5655 343.525 64.8469C343.525 39.1283 396.323 28.8628 446.033 28.8628C495.742 28.8628 760.556 58.2373 621.546 44.209Z" fill="#9E3330"/>
<defs>
<linearGradient id="paint0_linear_248_393" x1="371.027" y1="28.8628" x2="371.027" y2="748.544" gradientUnits="userSpaceOnUse">
<stop offset="0.9999" stop-color="#DBD2D2"/>
<stop offset="1" stop-color="#D07A39"/>
</linearGradient>
</defs>
</svg>
