<svg width="24" height="24" viewBox="0 0 24 24" fill="none" xmlns="http://www.w3.org/2000/svg">
<path fill-rule="evenodd" clip-rule="evenodd" d="M9.46498 2.81997C10.2573 2.44452 11.1232 2.24976 12 2.24976C12.8768 2.24976 13.7426 2.44452 14.535 2.81997L21.227 5.95797C22.279 6.45097 22.75 7.52197 22.75 8.49997C22.75 9.47797 22.28 10.55 21.227 11.043L19.75 11.735V16.625C19.75 17.878 19.122 19.088 17.978 19.722C17.226 20.138 16.238 20.639 15.198 21.038C14.171 21.432 13.034 21.75 12 21.75C10.966 21.75 9.82897 21.432 8.80097 21.038C7.76097 20.639 6.77397 20.138 6.02197 19.722C4.87797 19.088 4.24998 17.878 4.24998 16.625V11.5C4.24998 11.4586 4.25331 11.418 4.25998 11.378C4.23791 11.2432 4.25308 11.1049 4.30385 10.9781C4.35462 10.8513 4.43905 10.7407 4.54805 10.6584C4.65704 10.576 4.78646 10.525 4.92232 10.5109C5.05818 10.4967 5.19533 10.5199 5.31897 10.578L10.101 12.821C10.6942 13.1032 11.343 13.2497 12 13.2497C12.657 13.2497 13.3057 13.1032 13.899 12.821L20.59 9.68397C20.993 9.49497 21.25 9.04397 21.25 8.49997C21.25 7.95597 20.993 7.50497 20.59 7.31597L13.9 4.17897C13.3067 3.8967 12.658 3.75024 12.001 3.75024C11.344 3.75024 10.6952 3.8967 10.102 4.17897L3.41198 7.31597C3.23189 7.40058 3.02558 7.41018 2.83842 7.34267C2.65126 7.27515 2.49858 7.13605 2.41398 6.95597C2.32937 6.77589 2.31977 6.56958 2.38728 6.38241C2.4548 6.19525 2.59389 6.04258 2.77397 5.95797L9.46498 2.81997ZM5.74997 12.439V16.626C5.74997 17.389 6.12898 18.067 6.74898 18.411C7.46498 18.807 8.38697 19.273 9.33897 19.638C10.302 20.008 11.238 20.251 12 20.251C12.762 20.251 13.698 20.008 14.662 19.638C15.5522 19.2884 16.4176 18.8785 17.252 18.411C17.872 18.067 18.25 17.389 18.25 16.626V12.439L14.536 14.18C13.7435 14.5556 12.8775 14.7504 12.0005 14.7504C11.1235 14.7504 10.2575 14.5556 9.46498 14.18L5.74997 12.439Z" fill="white"/>
<path d="M6.69 7.70507C6.76804 7.88795 6.77027 8.09433 6.6962 8.27884C6.62213 8.46336 6.47782 8.61092 6.295 8.68907L5.22 9.15007C4.617 9.40907 4.22 9.58007 3.928 9.74407C3.652 9.89907 3.532 10.0151 3.456 10.1311C3.38 10.2471 3.321 10.4011 3.287 10.7161C3.251 11.0491 3.25 11.4821 3.25 12.1381V15.0001C3.25 15.199 3.17098 15.3897 3.03033 15.5304C2.88968 15.6711 2.69891 15.7501 2.5 15.7501C2.30109 15.7501 2.11032 15.6711 1.96967 15.5304C1.82902 15.3897 1.75 15.199 1.75 15.0001V12.0991C1.75 11.4921 1.75 10.9791 1.796 10.5551C1.844 10.1051 1.95 9.69107 2.204 9.30507C2.459 8.91907 2.798 8.65907 3.193 8.43707C3.563 8.22807 4.036 8.02607 4.593 7.78707L5.705 7.31107C5.88775 7.23297 6.09403 7.2306 6.27852 7.30447C6.46302 7.37835 6.61165 7.52243 6.69 7.70507Z" fill="white"/>
</svg>
