<svg width="18" height="19" viewBox="0 0 18 19" fill="none" xmlns="http://www.w3.org/2000/svg">
<path d="M11.827 14.789C12.0137 14.789 12.1727 14.7233 12.304 14.592C12.4347 14.4613 12.5 14.3027 12.5 14.116C12.5 13.9287 12.4347 13.7697 12.304 13.639C12.1733 13.5077 12.0143 13.442 11.827 13.442C11.6397 13.442 11.4807 13.5077 11.35 13.639C11.2193 13.7703 11.154 13.9293 11.154 14.116C11.154 14.3027 11.2193 14.4613 11.35 14.592C11.4807 14.7233 11.6397 14.789 11.827 14.789ZM14 14.789C14.1867 14.789 14.3457 14.7233 14.477 14.592C14.6077 14.4613 14.673 14.3027 14.673 14.116C14.673 13.9287 14.6077 13.7697 14.477 13.639C14.3463 13.5077 14.1873 13.442 14 13.442C13.8127 13.442 13.6537 13.5077 13.523 13.639C13.3923 13.7703 13.327 13.9293 13.327 14.116C13.327 14.3027 13.3923 14.4613 13.523 14.592C13.6537 14.7233 13.8127 14.789 14 14.789ZM16.173 14.789C16.3597 14.789 16.5187 14.7233 16.65 14.592C16.7807 14.4613 16.846 14.3027 16.846 14.116C16.846 13.9287 16.7807 13.7697 16.65 13.639C16.5193 13.5077 16.3603 13.442 16.173 13.442C15.9857 13.442 15.8267 13.5077 15.696 13.639C15.5653 13.7703 15.5 13.9293 15.5 14.116C15.5 14.3027 15.5653 14.4613 15.696 14.592C15.8267 14.7233 15.9857 14.789 16.173 14.789ZM1.616 16C1.168 16 0.786667 15.8427 0.472 15.528C0.157333 15.2133 0 14.8323 0 14.385V1.615C0 1.16833 0.157333 0.787333 0.472 0.472C0.786667 0.157333 1.168 0 1.616 0H14.385C14.8317 0 15.2127 0.157333 15.528 0.472C15.8427 0.786667 16 1.168 16 1.616V7.566C15.8247 7.50533 15.6567 7.456 15.496 7.418C15.336 7.38067 15.1707 7.34333 15 7.306V1.616C15 1.462 14.936 1.32067 14.808 1.192C14.68 1.06333 14.5387 0.999333 14.384 1H1.616C1.462 1 1.32067 1.064 1.192 1.192C1.06333 1.32 0.999333 1.46133 1 1.616V14.385C1 14.5383 1.064 14.6793 1.192 14.808C1.32 14.9367 1.461 15.0007 1.615 15H7.281C7.305 15.1867 7.336 15.3603 7.374 15.521C7.412 15.681 7.461 15.8407 7.521 16H1.616ZM1 14V15V1V7.306V7.231V14ZM3.5 12.27H7.46C7.49667 12.0987 7.54667 11.933 7.61 11.773L7.81 11.269H3.5V12.27ZM3.5 8.5H10.08C10.4087 8.26933 10.7323 8.074 11.051 7.914C11.3697 7.75333 11.7117 7.62733 12.077 7.536V7.5H3.5V8.5ZM3.5 4.73H12.5V3.73H3.5V4.73ZM14 18.117C12.886 18.117 11.941 17.7287 11.165 16.952C10.3883 16.1753 10 15.23 10 14.116C10 13.002 10.3883 12.0567 11.165 11.28C11.9417 10.5033 12.8867 10.1153 14 10.116C15.1133 10.1167 16.0587 10.5047 16.836 11.28C17.6133 12.0553 18.0013 13.0007 18 14.116C18 15.2293 17.612 16.1743 16.836 16.951C16.0587 17.7277 15.1133 18.116 14 18.116" fill="black"/>
</svg>
