<svg width="24" height="20" viewBox="0 0 24 20" fill="none" xmlns="http://www.w3.org/2000/svg">
<path d="M11.9998 -0.00402184C13.9464 -0.00658075 15.8175 0.74882 17.2168 2.10214C18.616 3.45545 19.4334 5.30036 19.4958 7.24598L19.4998 7.49598V11.593L20.8798 14.749C20.9628 14.9392 20.9971 15.147 20.9797 15.3538C20.9623 15.5605 20.8937 15.7597 20.7801 15.9334C20.6665 16.107 20.5115 16.2496 20.329 16.3484C20.1465 16.4471 19.9423 16.4989 19.7348 16.499L14.9998 16.502C15.0008 17.283 14.6972 18.0336 14.1535 18.5943C13.6099 19.155 12.869 19.4815 12.0883 19.5046C11.3077 19.5276 10.5488 19.2453 9.97298 18.7177C9.39717 18.1901 9.04983 17.4587 9.00477 16.679L8.99977 16.499H4.27477C4.06749 16.499 3.86346 16.4474 3.68105 16.349C3.49864 16.2506 3.34357 16.1083 3.22981 15.935C3.11604 15.7617 3.04715 15.5629 3.02934 15.3564C3.01153 15.1499 3.04536 14.9422 3.12777 14.752L4.49977 11.594V7.49598C4.49977 3.34098 7.85177 -0.00402184 11.9998 -0.00402184ZM13.4998 16.5L10.4998 16.502C10.4997 16.8873 10.6479 17.2578 10.9137 17.5368C11.1794 17.8158 11.5423 17.9818 11.9272 18.0005C12.312 18.0191 12.6893 17.889 12.9808 17.637C13.2723 17.385 13.4556 17.0305 13.4928 16.647L13.4998 16.5ZM11.9998 1.49598C8.67977 1.49598 5.99977 4.16998 5.99977 7.49598V11.906L4.65577 15H19.3528L17.9998 11.907V7.50898L17.9958 7.28398C17.9433 5.72956 17.2883 4.25649 16.1693 3.17631C15.0503 2.09613 13.5551 1.49354 11.9998 1.49598ZM20.9998 6.24998H22.9998C23.1898 6.25004 23.3727 6.32222 23.5116 6.45195C23.6504 6.58168 23.7348 6.75928 23.7478 6.94886C23.7607 7.13844 23.7013 7.32587 23.5813 7.47328C23.4614 7.62068 23.29 7.71708 23.1018 7.74298L22.9998 7.74998H20.9998C20.8097 7.74992 20.6268 7.67773 20.488 7.54801C20.3491 7.41828 20.2647 7.24068 20.2517 7.0511C20.2388 6.86152 20.2983 6.67409 20.4182 6.52668C20.5381 6.37927 20.7095 6.28288 20.8978 6.25698L20.9998 6.24998ZM0.999771 6.24998H2.99977C3.18979 6.25004 3.37271 6.32222 3.51156 6.45195C3.65041 6.58168 3.73485 6.75928 3.7478 6.94886C3.76075 7.13844 3.70126 7.32587 3.58134 7.47328C3.46142 7.62068 3.29002 7.71708 3.10177 7.74298L2.99977 7.74998H0.999771C0.809748 7.74992 0.62683 7.67773 0.48798 7.54801C0.349129 7.41828 0.264697 7.24068 0.251745 7.0511C0.238793 6.86152 0.298287 6.67409 0.418204 6.52668C0.538121 6.37927 0.709521 6.28288 0.897771 6.25698L0.999771 6.24998ZM22.5998 0.549978C22.7077 0.693719 22.7603 0.871421 22.7482 1.05074C22.7361 1.23005 22.66 1.39905 22.5338 1.52698L22.4498 1.59998L20.4498 3.09998C20.2984 3.21408 20.1094 3.26662 19.9208 3.24702C19.7322 3.22741 19.5581 3.13712 19.4334 2.99431C19.3087 2.8515 19.2427 2.66677 19.2487 2.47728C19.2547 2.28779 19.3323 2.10761 19.4658 1.97298L19.5498 1.89998L21.5498 0.399978C21.7089 0.280631 21.9089 0.229385 22.1058 0.257516C22.3028 0.285646 22.4804 0.390848 22.5998 0.549978ZM2.44977 0.399978L4.44977 1.89998C4.52856 1.95907 4.59495 2.03311 4.64513 2.11786C4.69531 2.20261 4.7283 2.29641 4.74223 2.39391C4.75616 2.49141 4.75075 2.5907 4.72631 2.68611C4.70186 2.78152 4.65887 2.87118 4.59977 2.94998C4.54068 3.02877 4.46664 3.09515 4.38189 3.14533C4.29714 3.19551 4.20334 3.22851 4.10584 3.24244C4.00834 3.25637 3.90905 3.25096 3.81364 3.22651C3.71823 3.20207 3.62856 3.15907 3.54977 3.09998L1.54977 1.59998C1.47098 1.54088 1.4046 1.46685 1.35442 1.3821C1.30423 1.29735 1.27124 1.20355 1.25731 1.10604C1.24338 1.00854 1.24879 0.909252 1.27324 0.813842C1.29768 0.718432 1.34068 0.628771 1.39977 0.549978C1.45887 0.471185 1.5329 0.404803 1.61765 0.354622C1.7024 0.304441 1.7962 0.271445 1.89371 0.257516C1.99121 0.243587 2.0905 0.248999 2.18591 0.273443C2.28132 0.297886 2.37098 0.340883 2.44977 0.399978Z" fill="black"/>
</svg>
