<svg width="24" height="24" viewBox="0 0 24 24" fill="none" xmlns="http://www.w3.org/2000/svg">
<path d="M11.9998 1.99598C13.9464 1.99342 15.8175 2.74882 17.2168 4.10214C18.616 5.45545 19.4334 7.30036 19.4958 9.24598L19.4998 9.49598V13.593L20.8798 16.749C20.9628 16.9392 20.9971 17.147 20.9797 17.3538C20.9623 17.5605 20.8937 17.7597 20.7801 17.9334C20.6665 18.107 20.5115 18.2496 20.329 18.3484C20.1465 18.4471 19.9423 18.4989 19.7348 18.499L14.9998 18.502C15.0008 19.283 14.6972 20.0336 14.1535 20.5943C13.6099 21.155 12.869 21.4815 12.0883 21.5046C11.3077 21.5276 10.5488 21.2453 9.97298 20.7177C9.39717 20.1901 9.04983 19.4587 9.00477 18.679L8.99977 18.499H4.27477C4.06749 18.499 3.86346 18.4474 3.68105 18.349C3.49864 18.2506 3.34357 18.1083 3.22981 17.935C3.11604 17.7617 3.04715 17.5629 3.02934 17.3564C3.01153 17.1499 3.04536 16.9422 3.12777 16.752L4.49977 13.594V9.49598C4.49977 5.34098 7.85177 1.99598 11.9998 1.99598ZM13.4998 18.5L10.4998 18.502C10.4997 18.8873 10.6479 19.2578 10.9137 19.5368C11.1794 19.8158 11.5423 19.9818 11.9272 20.0005C12.312 20.0191 12.6893 19.889 12.9808 19.637C13.2723 19.385 13.4556 19.0305 13.4928 18.647L13.4998 18.5ZM11.9998 3.49598C8.67977 3.49598 5.99977 6.16998 5.99977 9.49598V13.906L4.65577 17H19.3528L17.9998 13.907V9.50898L17.9958 9.28398C17.9433 7.72956 17.2883 6.25649 16.1693 5.17631C15.0503 4.09613 13.5551 3.49354 11.9998 3.49598ZM20.9998 8.24998H22.9998C23.1898 8.25004 23.3727 8.32222 23.5116 8.45195C23.6504 8.58168 23.7348 8.75928 23.7478 8.94886C23.7607 9.13844 23.7013 9.32587 23.5813 9.47328C23.4614 9.62068 23.29 9.71708 23.1018 9.74298L22.9998 9.74998H20.9998C20.8097 9.74992 20.6268 9.67773 20.488 9.54801C20.3491 9.41828 20.2647 9.24068 20.2517 9.0511C20.2388 8.86152 20.2983 8.67409 20.4182 8.52668C20.5381 8.37927 20.7095 8.28288 20.8978 8.25698L20.9998 8.24998ZM0.999771 8.24998H2.99977C3.18979 8.25004 3.37271 8.32222 3.51156 8.45195C3.65041 8.58168 3.73485 8.75928 3.7478 8.94886C3.76075 9.13844 3.70126 9.32587 3.58134 9.47328C3.46142 9.62068 3.29002 9.71708 3.10177 9.74298L2.99977 9.74998H0.999771C0.809748 9.74992 0.62683 9.67773 0.48798 9.54801C0.349129 9.41828 0.264697 9.24068 0.251745 9.0511C0.238793 8.86152 0.298287 8.67409 0.418204 8.52668C0.538121 8.37927 0.709521 8.28288 0.897771 8.25698L0.999771 8.24998ZM22.5998 2.54998C22.7077 2.69372 22.7603 2.87142 22.7482 3.05074C22.7361 3.23005 22.66 3.39905 22.5338 3.52698L22.4498 3.59998L20.4498 5.09998C20.2984 5.21408 20.1094 5.26662 19.9208 5.24702C19.7322 5.22741 19.5581 5.13712 19.4334 4.99431C19.3087 4.8515 19.2427 4.66677 19.2487 4.47728C19.2547 4.28779 19.3323 4.10761 19.4658 3.97298L19.5498 3.89998L21.5498 2.39998C21.7089 2.28063 21.9089 2.22939 22.1058 2.25752C22.3027 2.28565 22.4804 2.39085 22.5998 2.54998ZM2.44977 2.39998L4.44977 3.89998C4.52856 3.95907 4.59495 4.03311 4.64513 4.11786C4.69531 4.20261 4.7283 4.29641 4.74223 4.39391C4.75616 4.49141 4.75075 4.5907 4.72631 4.68611C4.70186 4.78152 4.65887 4.87118 4.59977 4.94998C4.54068 5.02877 4.46664 5.09515 4.38189 5.14533C4.29714 5.19551 4.20334 5.22851 4.10584 5.24244C4.00834 5.25637 3.90905 5.25096 3.81364 5.22651C3.71823 5.20207 3.62856 5.15907 3.54977 5.09998L1.54977 3.59998C1.47098 3.54088 1.4046 3.46685 1.35442 3.3821C1.30423 3.29735 1.27124 3.20355 1.25731 3.10604C1.24338 3.00854 1.24879 2.90925 1.27324 2.81384C1.29768 2.71843 1.34068 2.62877 1.39977 2.54998C1.45887 2.47118 1.5329 2.4048 1.61765 2.35462C1.7024 2.30444 1.7962 2.27144 1.89371 2.25752C1.99121 2.24359 2.0905 2.249 2.18591 2.27344C2.28132 2.29789 2.37098 2.34088 2.44977 2.39998Z" fill="white"/>
</svg>
