<svg width="31" height="30" viewBox="0 0 31 30" fill="none" xmlns="http://www.w3.org/2000/svg">
<path fill-rule="evenodd" clip-rule="evenodd" d="M9.875 1.25C10.5654 1.25 11.125 1.80964 11.125 2.5V3.75H19.875V2.5C19.875 1.80964 20.4346 1.25 21.125 1.25C21.8154 1.25 22.375 1.80964 22.375 2.5V3.78086C25.5333 4.09444 28 6.75916 28 10V21.25C28 24.7018 25.2018 27.5 21.75 27.5H9.25C5.79822 27.5 3 24.7018 3 21.25V10C3 6.75916 5.46667 4.09444 8.625 3.78086V2.5C8.625 1.80964 9.18464 1.25 9.875 1.25ZM5.71338 8.75H25.2866C24.7718 7.29351 23.3828 6.25 21.75 6.25H9.25C7.61723 6.25 6.22818 7.29351 5.71338 8.75ZM25.5 11.25H5.5V21.25C5.5 23.3211 7.17893 25 9.25 25H21.75C23.8211 25 25.5 23.3211 25.5 21.25V11.25ZM8 15C8 14.3096 8.55964 13.75 9.25 13.75H14.25C14.9404 13.75 15.5 14.3096 15.5 15V20C15.5 20.6904 14.9404 21.25 14.25 21.25H9.25C8.55964 21.25 8 20.6904 8 20V15ZM13 16.25H10.5V18.75H13V16.25Z" fill="black"/>
</svg>
