<svg width="33" height="33" viewBox="0 0 33 33" fill="none" xmlns="http://www.w3.org/2000/svg">
<path d="M28.875 6.1875C28.875 5.64049 28.6577 5.11589 28.2709 4.72909C27.8841 4.3423 27.3595 4.125 26.8125 4.125H22.6875V2.0625H20.625V4.125H12.375V2.0625H10.3125V4.125H6.1875C5.64049 4.125 5.11589 4.3423 4.72909 4.72909C4.3423 5.11589 4.125 5.64049 4.125 6.1875V26.8125C4.125 27.3595 4.3423 27.8841 4.72909 28.2709C5.11589 28.6577 5.64049 28.875 6.1875 28.875H10.3125V26.8125H6.1875V6.1875H10.3125V8.25H12.375V6.1875H20.625V8.25H22.6875V6.1875H26.8125V12.375H28.875V6.1875Z" fill="black"/>
<path d="M21.6562 15.4688L24.2849 20.5611L29.9062 21.3768L25.7812 25.3409L26.8125 30.9375L21.6562 28.2954L16.5 30.9375L17.5312 25.3409L13.4062 21.3768L19.1813 20.5611L21.6562 15.4688Z" fill="black"/>
</svg>
