<svg width="26" height="26" viewBox="0 0 26 26" fill="none" xmlns="http://www.w3.org/2000/svg">
<path d="M1.5508 9.37973C3.0832 4.64109 7.6432 1.20361 13.03 1.20361C19.2676 1.20361 24.3964 5.81378 25 11.7158L22.6 11.2404M24.4492 16.3878C23.6766 18.761 22.1473 20.8329 20.0832 22.303C18.0192 23.7732 15.5277 24.5651 12.97 24.564C6.7324 24.564 1.6036 19.9538 1 14.0518L3.4 14.5272" stroke="black" stroke-width="1.5" stroke-linecap="round" stroke-linejoin="round"/>
<path d="M9.40252 14.6685V16.9951C9.39976 17.1826 9.44586 17.3677 9.53652 17.5332C9.62717 17.6986 9.75942 17.839 9.92092 17.9412C10.9337 18.558 11.7029 18.739 13.0061 18.7775C14.2073 18.8091 14.9609 18.6257 16.0817 17.9436C16.2459 17.8406 16.3806 17.6987 16.4729 17.5311C16.5653 17.3636 16.6124 17.1759 16.6097 16.9858V14.6685M19.0133 11.7332V15.2548M7.06012 11.5335C7.49452 10.6411 10.1861 9.08767 12.6425 8.32029C12.8793 8.24707 13.1343 8.25283 13.3673 8.33664C15.5393 9.10987 17.9561 10.2814 18.8333 11.231C19.2905 11.7274 18.8429 12.3605 18.2897 12.7517C17.1653 13.5472 15.9257 14.165 13.4201 15.103C13.1547 15.202 12.8614 15.204 12.5945 15.1088C10.0265 14.1802 7.62412 12.983 7.08052 11.9283C7.04687 11.8682 7.02756 11.8015 7.02403 11.7332C7.0205 11.6648 7.03283 11.5966 7.06012 11.5335Z" stroke="black" stroke-width="1.5" stroke-linecap="round" stroke-linejoin="round"/>
</svg>
