<svg width="26" height="27" viewBox="0 0 26 27" fill="none" xmlns="http://www.w3.org/2000/svg">
<path d="M1.5508 9.98188C3.0832 4.97334 7.6432 1.34009 13.03 1.34009C19.2676 1.34009 24.3964 6.21282 25 12.451L22.6 11.9485M24.4492 17.3891C23.6766 19.8975 22.1473 22.0874 20.0832 23.6412C18.0192 25.1951 15.5277 26.0321 12.97 26.0309C6.7324 26.0309 1.6036 21.1582 1 14.92L3.4 15.4225" stroke="white" stroke-width="1.5" stroke-linecap="round" stroke-linejoin="round"/>
<path d="M9.40252 15.5717V18.0309C9.39976 18.2291 9.44586 18.4248 9.53652 18.5996C9.62717 18.7745 9.75942 18.9229 9.92092 19.0309C10.9337 19.6828 11.7029 19.8741 13.0061 19.9149C14.2073 19.9482 14.9609 19.7544 16.0817 19.0334C16.2459 18.9246 16.3806 18.7745 16.4729 18.5975C16.5653 18.4204 16.6124 18.222 16.6097 18.0211V15.5717M19.0133 12.4693V16.1915M7.06012 12.2582C7.49452 11.315 10.1861 9.6731 12.6425 8.86201C12.8793 8.78463 13.1343 8.79071 13.3673 8.87929C15.5393 9.69656 17.9561 10.9348 18.8333 11.9385C19.2905 12.4632 18.8429 13.1323 18.2897 13.5459C17.1653 14.3866 15.9257 15.0397 13.4201 16.031C13.1547 16.1356 12.8614 16.1378 12.5945 16.0372C10.0265 15.0557 7.62412 13.7903 7.08052 12.6755C7.04687 12.612 7.02756 12.5415 7.02403 12.4693C7.0205 12.397 7.03283 12.3249 7.06012 12.2582Z" stroke="white" stroke-width="1.5" stroke-linecap="round" stroke-linejoin="round"/>
</svg>
