<svg width="24" height="24" viewBox="0 0 24 24" fill="none" xmlns="http://www.w3.org/2000/svg">
<path d="M5.25 12.5C5.11739 12.5 4.99021 12.5527 4.89645 12.6465C4.80268 12.7402 4.75 12.8674 4.75 13C4.75 13.1326 4.80268 13.2598 4.89645 13.3536C4.99021 13.4474 5.11739 13.5 5.25 13.5H18.75C18.8826 13.5 19.0098 13.4474 19.1036 13.3536C19.1973 13.2598 19.25 13.1326 19.25 13C19.25 12.8674 19.1973 12.7402 19.1036 12.6465C19.0098 12.5527 18.8826 12.5 18.75 12.5H5.25ZM5.25 15C5.11739 15 4.99021 15.0527 4.89645 15.1465C4.80268 15.2402 4.75 15.3674 4.75 15.5C4.75 15.6326 4.80268 15.7598 4.89645 15.8536C4.99021 15.9474 5.11739 16 5.25 16H11.5C11.6326 16 11.7598 15.9474 11.8536 15.8536C11.9473 15.7598 12 15.6326 12 15.5C12 15.3674 11.9473 15.2402 11.8536 15.1465C11.7598 15.0527 11.6326 15 11.5 15H5.25ZM5.417 5.25303C5.66355 5.08821 5.95343 5.00016 6.25 5.00003C6.44735 4.9987 6.64301 5.0366 6.82559 5.11151C7.00818 5.18642 7.17407 5.29686 7.31362 5.43641C7.45318 5.57596 7.56362 5.74185 7.63853 5.92444C7.71344 6.10703 7.75133 6.30268 7.75 6.50003C7.75008 6.75922 7.68299 7.01399 7.55529 7.23953C7.42759 7.46507 7.24363 7.65367 7.02135 7.78695C6.79906 7.92023 6.54603 7.99364 6.28693 8.00002C6.02782 8.0064 5.77149 7.94554 5.54291 7.82336C5.31433 7.70118 5.12131 7.52187 4.98267 7.30289C4.84402 7.08391 4.76448 6.83274 4.7518 6.57387C4.73912 6.315 4.79373 6.05726 4.91031 5.82577C5.02689 5.59429 5.20146 5.39697 5.417 5.25303ZM9.75 6.00003C9.61739 6.00003 9.49021 6.05271 9.39645 6.14648C9.30268 6.24025 9.25 6.36743 9.25 6.50003C9.25 6.63264 9.30268 6.75982 9.39645 6.85359C9.49021 6.94736 9.61739 7.00003 9.75 7.00003H18.25C18.3826 7.00003 18.5098 6.94736 18.6036 6.85359C18.6973 6.75982 18.75 6.63264 18.75 6.50003C18.75 6.36743 18.6973 6.24025 18.6036 6.14648C18.5098 6.05271 18.3826 6.00003 18.25 6.00003H9.75Z" fill="black"/>
<path d="M2.25 9.7C2.25 7.18 2.25 5.92 2.74 4.957C3.17147 4.11005 3.86005 3.42147 4.707 2.99C5.67 2.5 6.93 2.5 9.45 2.5H14.55C17.07 2.5 18.33 2.5 19.293 2.99C20.14 3.42147 20.8285 4.11005 21.26 4.957C21.75 5.92 21.75 7.18 21.75 9.7V15.3C21.75 17.82 21.75 18.08 21.26 19.043C20.8285 19.89 20.14 20.5785 19.293 21.01C18.33 21.5 17.07 21.5 14.55 21.5H9.45C6.93 21.5 5.67 21.5 4.707 21.01C3.86005 20.5785 3.17147 19.89 2.74 19.043C2.25 18.08 2.25 17.82 2.25 15.3V9.7ZM20.75 10.5H3.25V14.3C3.25 16.12 3.25 16.03 3.604 16.725C3.91556 17.3364 4.41263 17.8334 5.024 18.145C5.72 18.5 6.63 18.5 8.45 18.5H15.55C17.37 18.5 18.28 18.5 18.975 18.146C19.5864 17.8344 20.0834 17.3374 20.395 16.726C20.75 16.03 20.75 16.12 20.75 14.3V10.5ZM19.293 19.01C18.33 19.5 17.07 19.5 14.55 19.5H9.45C6.93 19.5 5.67 19.5 4.707 19.01C4.195 18.7489 3.73776 18.3921 3.36 17.959C3.412 18.253 3.49 18.5 3.604 18.726C3.91556 19.3374 4.41263 19.8344 5.024 20.146C5.72 20.5 6.63 20.5 8.45 20.5H15.55C17.37 20.5 18.28 20.5 18.975 20.146C19.5864 19.8344 20.0834 19.3374 20.395 18.726C20.511 18.5 20.588 18.253 20.64 17.959C20.2621 18.3918 19.8049 18.7492 19.293 19.01ZM3.25 8.7V9.5H20.75V8.7C20.75 6.88 20.75 5.97 20.396 5.275C20.0844 4.66363 19.5874 4.16656 18.976 3.855C18.28 3.5 17.37 3.5 15.55 3.5H8.45C6.63 3.5 5.72 3.5 5.025 3.854C4.41363 4.16556 3.91656 4.66263 3.605 5.274C3.25 5.97 3.25 6.88 3.25 8.7Z" fill="black"/>
</svg>
