<svg width="24" height="24" viewBox="0 0 24 24" fill="none" xmlns="http://www.w3.org/2000/svg">
<g clip-path="url(#clip0_589_345)">
<path d="M23.1426 11.2732V18C23.1426 18.2274 23.0523 18.4454 22.8916 18.6061C22.7309 18.7669 22.5128 18.8572 22.2855 18.8572H1.71408C1.48675 18.8572 1.26873 18.7669 1.10798 18.6061C0.947239 18.4454 0.856934 18.2274 0.856934 18V4.28575C0.856934 4.05842 0.947239 3.8404 1.10798 3.67966C1.26873 3.51891 1.48675 3.42861 1.71408 3.42861H12.2844M10.2855 18.8572L8.57122 23.1429M13.7141 18.8572L15.4284 23.1429M6.85693 23.1429H17.1426M16.2855 3.42861C16.2855 2.92003 16.4363 2.42287 16.7189 2C17.0014 1.57713 17.403 1.24754 17.8729 1.05292C18.3428 0.858292 18.8598 0.807369 19.3586 0.906588C19.8574 1.00581 20.3156 1.25071 20.6752 1.61033C21.0348 1.96995 21.2797 2.42814 21.379 2.92695C21.4782 3.42575 21.4272 3.94278 21.2326 4.41265C21.038 4.88252 20.7084 5.28412 20.2855 5.56667C19.8627 5.84922 19.3655 6.00004 18.8569 6.00004V7.71432" stroke="black" stroke-linecap="round" stroke-linejoin="round"/>
<path d="M18.8568 12.0001C18.7431 12.0001 18.6341 11.9549 18.5537 11.8746C18.4734 11.7942 18.4282 11.6852 18.4282 11.5715C18.4282 11.4579 18.4734 11.3488 18.5537 11.2685C18.6341 11.1881 18.7431 11.1429 18.8568 11.1429M18.8568 12.0001C18.9705 12.0001 19.0795 11.9549 19.1598 11.8746C19.2402 11.7942 19.2854 11.6852 19.2854 11.5715C19.2854 11.4579 19.2402 11.3488 19.1598 11.2685C19.0795 11.1881 18.9705 11.1429 18.8568 11.1429" stroke="black" stroke-linecap="round" stroke-linejoin="round"/>
</g>
<defs>
<clipPath id="clip0_589_345">
<rect width="24" height="24" fill="white"/>
</clipPath>
</defs>
</svg>
