<svg width="26" height="26" viewBox="0 0 26 26" fill="none" xmlns="http://www.w3.org/2000/svg">
<path d="M3.66667 12.6802H1L13 1L25 12.6802H22.3333M3.66667 12.6802V21.7647C3.66667 22.4531 3.94762 23.1133 4.44772 23.6001C4.94781 24.0869 5.62609 24.3603 6.33333 24.3603H19.6667C20.3739 24.3603 21.0522 24.0869 21.5523 23.6001C22.0524 23.1133 22.3333 22.4531 22.3333 21.7647V12.6802" fill="url(#paint0_linear_589_358)"/>
<path d="M3.66667 12.6802H1L13 1L25 12.6802H22.3333V21.7647C22.3333 22.4531 22.0524 23.1133 21.5523 23.6001C21.0522 24.0869 20.3739 24.3603 19.6667 24.3603H6.33333C5.62609 24.3603 4.94781 24.0869 4.44772 23.6001C3.94762 23.1133 3.66667 22.4531 3.66667 21.7647V12.6802Z" stroke="black" stroke-width="2" stroke-linecap="round" stroke-linejoin="round"/>
<path d="M9 24.3604V16.5736C9 15.8852 9.28095 15.225 9.78105 14.7383C10.2811 14.2515 10.9594 13.978 11.6667 13.978H14.3333C15.0406 13.978 15.7189 14.2515 16.219 14.7383C16.719 15.225 17 15.8852 17 16.5736V24.3604" fill="url(#paint1_linear_589_358)"/>
<path d="M9 24.3604V16.5736C9 15.8852 9.28095 15.225 9.78105 14.7383C10.2811 14.2515 10.9594 13.978 11.6667 13.978H14.3333C15.0406 13.978 15.7189 14.2515 16.219 14.7383C16.719 15.225 17 15.8852 17 16.5736V24.3604" stroke="black" stroke-width="2" stroke-linecap="round" stroke-linejoin="round"/>
<defs>
<linearGradient id="paint0_linear_589_358" x1="3.09174" y1="1" x2="27.107" y2="5.14725" gradientUnits="userSpaceOnUse">
<stop offset="0.341667" stop-color="#7A6D6F"/>
<stop offset="1" stop-color="#6C3A30"/>
</linearGradient>
<linearGradient id="paint1_linear_589_358" x1="9.69725" y1="13.978" x2="17.805" y2="15.0281" gradientUnits="userSpaceOnUse">
<stop offset="0.341667" stop-color="#7A6D6F"/>
<stop offset="1" stop-color="#6C3A30"/>
</linearGradient>
</defs>
</svg>
