<svg width="20" height="20" viewBox="0 0 20 20" fill="none" xmlns="http://www.w3.org/2000/svg">
<path d="M3 9.54669H1L10 1L19 9.54669H17M3 9.54669V16.1941C3 16.6978 3.21071 17.1809 3.58579 17.5371C3.96086 17.8933 4.46957 18.0934 5 18.0934H15C15.5304 18.0934 16.0391 17.8933 16.4142 17.5371C16.7893 17.1809 17 16.6978 17 16.1941V9.54669" stroke="white" stroke-width="2" stroke-linecap="round" stroke-linejoin="round"/>
<path d="M7 18.0934V12.3956C7 11.8919 7.21071 11.4088 7.58579 11.0526C7.96086 10.6964 8.46957 10.4963 9 10.4963H11C11.5304 10.4963 12.0391 10.6964 12.4142 11.0526C12.7893 11.4088 13 11.8919 13 12.3956V18.0934" stroke="white" stroke-width="2" stroke-linecap="round" stroke-linejoin="round"/>
</svg>
