<svg width="20" height="20" viewBox="0 0 20 20" fill="none" xmlns="http://www.w3.org/2000/svg">
<path d="M3 10.2324H1L10 1.78961L19 10.2324H17M3 10.2324V16.7991C3 17.2966 3.21071 17.7739 3.58579 18.1257C3.96086 18.4776 4.46957 18.6752 5 18.6752H15C15.5304 18.6752 16.0391 18.4776 16.4142 18.1257C16.7893 17.7739 17 17.2966 17 16.7991V10.2324" stroke="black" stroke-width="2" stroke-linecap="round" stroke-linejoin="round"/>
<path d="M7 18.6752V13.0467C7 12.5491 7.21071 12.0719 7.58579 11.72C7.96086 11.3682 8.46957 11.1705 9 11.1705H11C11.5304 11.1705 12.0391 11.3682 12.4142 11.72C12.7893 12.0719 13 12.5491 13 13.0467V18.6752" stroke="black" stroke-width="2" stroke-linecap="round" stroke-linejoin="round"/>
</svg>
