<svg width="28" height="28" viewBox="0 0 28 28" fill="none" xmlns="http://www.w3.org/2000/svg">
<path d="M8.94925 7.38858L6.58349 4.29171M5.82789 11.4747L2 10.2918M5.82789 16.5253L2 17.7082M8.94925 20.6114L6.58349 23.7083M14 22.1721V26M19.0507 20.6114L21.4165 23.7083M22.1721 16.5253L26 17.7082M22.1721 11.4747L26 10.2918M19.0507 7.38858L21.4165 4.29171M14 5.82795V2M19.8518 14C19.8518 17.0737 17.2318 19.5655 14 19.5655C10.7682 19.5655 8.14822 17.0737 8.14822 14C8.14822 10.9263 10.7682 8.43455 14 8.43455C17.2318 8.43455 19.8518 10.9263 19.8518 14Z" stroke="white" stroke-width="3" stroke-linecap="round"/>
</svg>
