<svg width="24" height="24" viewBox="0 0 24 24" fill="none" xmlns="http://www.w3.org/2000/svg">
<path fill-rule="evenodd" clip-rule="evenodd" d="M16.0005 9C16.0005 10.0609 15.5791 11.0783 14.8289 11.8284C14.0788 12.5786 13.0614 13 12.0005 13C10.9396 13 9.92221 12.5786 9.17206 11.8284C8.42192 11.0783 8.00049 10.0609 8.00049 9C8.00049 7.93913 8.42192 6.92172 9.17206 6.17157C9.92221 5.42143 10.9396 5 12.0005 5C13.0614 5 14.0788 5.42143 14.8289 6.17157C15.5791 6.92172 16.0005 7.93913 16.0005 9ZM14.0005 9C14.0005 9.53043 13.7898 10.0391 13.4147 10.4142C13.0396 10.7893 12.5309 11 12.0005 11C11.4701 11 10.9613 10.7893 10.5863 10.4142C10.2112 10.0391 10.0005 9.53043 10.0005 9C10.0005 8.46957 10.2112 7.96086 10.5863 7.58579C10.9613 7.21071 11.4701 7 12.0005 7C12.5309 7 13.0396 7.21071 13.4147 7.58579C13.7898 7.96086 14.0005 8.46957 14.0005 9Z" fill="white"/>
<path fill-rule="evenodd" clip-rule="evenodd" d="M12.0005 1C5.92549 1 1.00049 5.925 1.00049 12C1.00049 18.075 5.92549 23 12.0005 23C18.0755 23 23.0005 18.075 23.0005 12C23.0005 5.925 18.0755 1 12.0005 1ZM3.00049 12C3.00049 14.09 3.71349 16.014 4.90849 17.542C5.74793 16.4401 6.83064 15.5471 8.07213 14.9327C9.31361 14.3183 10.6803 13.9991 12.0655 14C13.4329 13.9984 14.7826 14.3091 16.0116 14.9084C17.2407 15.5077 18.3167 16.3797 19.1575 17.458C20.0239 16.3216 20.6073 14.9952 20.8594 13.5886C21.1114 12.182 21.0249 10.7355 20.607 9.36898C20.189 8.00243 19.4517 6.75505 18.456 5.73004C17.4602 4.70503 16.2347 3.93186 14.8809 3.47451C13.527 3.01716 12.0837 2.88877 10.6703 3.09997C9.25701 3.31117 7.91428 3.85589 6.75326 4.68905C5.59224 5.52222 4.6463 6.61987 3.99372 7.8912C3.34114 9.16252 3.00067 10.571 3.00049 12ZM12.0005 21C9.9344 21.0033 7.93063 20.2926 6.32849 18.988C6.9733 18.0646 7.83168 17.3107 8.83056 16.7905C9.82945 16.2702 10.9392 15.999 12.0655 16C13.1777 15.999 14.274 16.2635 15.2635 16.7713C16.2529 17.2792 17.1069 18.0158 17.7545 18.92C16.14 20.267 14.1031 21.0033 12.0005 21Z" fill="white"/>
</svg>
