<svg width="24" height="24" viewBox="0 0 24 24" fill="none" xmlns="http://www.w3.org/2000/svg">
<path d="M22 5C22 5.79565 21.6839 6.55871 21.1213 7.12132C20.5587 7.68393 19.7956 8 19 8C18.2044 8 17.4413 7.68393 16.8787 7.12132C16.3161 6.55871 16 5.79565 16 5C16 4.20435 16.3161 3.44129 16.8787 2.87868C17.4413 2.31607 18.2044 2 19 2C19.7956 2 20.5587 2.31607 21.1213 2.87868C21.6839 3.44129 22 4.20435 22 5Z" fill="black"/>
<path opacity="0.8" d="M15.636 2.011C15.011 2 14.306 2 13.5 2H10.5C7.227 2 5.59 2 4.388 2.737C3.7152 3.14904 3.14945 3.71445 2.737 4.387C2 5.59 2 7.228 2 10.5V11.5C2 13.83 2 14.995 2.38 15.913C2.63139 16.5197 2.99984 17.071 3.46432 17.5353C3.92879 17.9996 4.48018 18.3678 5.087 18.619C5.747 18.893 6.534 18.969 7.79 18.991C8.64 19.006 9.065 19.013 9.403 19.21C9.74 19.406 9.951 19.761 10.371 20.472L10.913 21.388C11.396 22.204 12.603 22.204 13.087 21.388L13.629 20.472C14.049 19.762 14.259 19.406 14.597 19.21C14.935 19.013 15.36 19.006 16.21 18.991C17.466 18.97 18.253 18.893 18.913 18.619C19.5196 18.3677 20.0708 17.9994 20.5351 17.5351C20.9994 17.0708 21.3677 16.5196 21.619 15.913C22 14.995 22 13.83 22 11.5V10.5C22 9.695 22 8.989 21.989 8.364C21.1312 9.12659 20.0144 9.53257 18.8671 9.49889C17.7198 9.4652 16.6288 8.9944 15.8172 8.18281C15.0056 7.37121 14.5348 6.28016 14.5011 5.13288C14.4674 3.9856 14.8734 2.86881 15.636 2.011Z" fill="#EC8305"/>
</svg>
