<svg width="20" height="16" viewBox="0 0 20 16" fill="none" xmlns="http://www.w3.org/2000/svg">
<path d="M4.5 5C5.16304 5 5.79893 4.73661 6.26777 4.26777C6.73661 3.79893 7 3.16304 7 2.5C7 1.83696 6.73661 1.20107 6.26777 0.732233C5.79893 0.263392 5.16304 0 4.5 0C3.83696 0 3.20107 0.263392 2.73223 0.732233C2.26339 1.20107 2 1.83696 2 2.5C2 3.16304 2.26339 3.79893 2.73223 4.26777C3.20107 4.73661 3.83696 5 4.5 5ZM16 5C16.663 5 17.2989 4.73661 17.7678 4.26777C18.2366 3.79893 18.5 3.16304 18.5 2.5C18.5 1.83696 18.2366 1.20107 17.7678 0.732233C17.2989 0.263392 16.663 0 16 0C15.337 0 14.7011 0.263392 14.2322 0.732233C13.7634 1.20107 13.5 1.83696 13.5 2.5C13.5 3.16304 13.7634 3.79893 14.2322 4.26777C14.7011 4.73661 15.337 5 16 5ZM0 9.33438C0 9.7 0.3 10 0.665625 10H7.35313C6.52188 9.26562 6 8.19375 6 7C6 6.7625 6.02187 6.53125 6.05937 6.30312C5.63437 6.10625 5.1625 6 4.66563 6H3.33125C1.49375 6 0 7.49375 0 9.33438ZM10 10C10.75 10 11.4344 9.725 11.9594 9.27188C12.0375 9.15625 12.1219 9.04375 12.2094 8.9375C12.2938 8.83438 12.3875 8.74688 12.4906 8.67813C12.8125 8.19688 13 7.62187 13 7C13 5.34375 11.6562 4 10 4C8.34375 4 7 5.34375 7 7C7 8.65625 8.34375 10 10 10ZM12.0437 11.8813C11.7219 11.6969 11.4781 11.375 11.3938 11H8.16875C5.86562 11 4 12.8656 4 15.1656C4 15.625 4.37187 16 4.83437 16H14.2281C14.1625 15.8375 14.1281 15.6594 14.1281 15.4875V15.3938C14.0875 15.3719 14.0438 15.3469 14.0031 15.3219L13.9219 15.3687C13.3969 15.6719 12.6562 15.6188 12.2125 15.0656C12.0719 14.8906 11.9437 14.7062 11.825 14.5156L11.8219 14.5094L11.8188 14.5031L11.7437 14.375L11.7406 14.3687L11.7375 14.3625C11.6313 14.1688 11.5375 13.9687 11.4563 13.7594C11.2 13.0969 11.525 12.4281 12.05 12.125L12.1344 12.0781V11.9344L12.05 11.8875L12.0437 11.8813ZM16.6656 6H15.3313C14.8344 6 14.3625 6.10937 13.9375 6.30312C13.9781 6.52812 13.9969 6.7625 13.9969 7C13.9969 7.54375 13.8875 8.05937 13.6938 8.53125C13.7719 8.55937 13.8469 8.59375 13.9156 8.63437L13.9969 8.68125C14.0375 8.65625 14.0781 8.63125 14.1219 8.60938V8.51562C14.1219 7.90938 14.5375 7.29375 15.2406 7.18437C15.4875 7.14687 15.7406 7.125 15.9969 7.125C16.2531 7.125 16.5062 7.14375 16.7531 7.18437C17.4562 7.29375 17.8719 7.90938 17.8719 8.51562V8.60938C17.9125 8.63125 17.9563 8.65625 17.9969 8.68125L18.0781 8.63437C18.6031 8.33125 19.3438 8.38437 19.7875 8.9375C19.8594 9.025 19.9281 9.11875 19.9937 9.20938C19.9281 7.425 18.4625 6 16.6625 6H16.6656ZM19.5187 11.1219C19.7156 11.0094 19.8156 10.775 19.7313 10.5594C19.6656 10.3875 19.5875 10.2219 19.5 10.0625L19.4281 9.9375C19.3313 9.77813 19.225 9.62812 19.1094 9.48438C18.9656 9.30625 18.7125 9.275 18.5156 9.39062L18.425 9.44375C18.1375 9.60938 17.7875 9.56875 17.5 9.40312C17.2125 9.2375 16.9969 8.95 16.9969 8.61875V8.5125C16.9969 8.28437 16.8437 8.08125 16.6187 8.04688C16.4156 8.01562 16.2094 8 15.9969 8C15.7844 8 15.5781 8.01562 15.375 8.04688C15.15 8.08125 14.9969 8.28437 14.9969 8.5125V8.61875C14.9969 8.95 14.7812 9.2375 14.4937 9.40312C14.2062 9.56875 13.8563 9.60938 13.5688 9.44375L13.4781 9.39062C13.2812 9.27813 13.0281 9.30938 12.8844 9.48438C12.7687 9.62812 12.6625 9.78125 12.5656 9.94063L12.4937 10.0625C12.4062 10.2219 12.3281 10.3875 12.2625 10.5594C12.1812 10.7719 12.2781 11.0062 12.475 11.1187L12.5656 11.1719C12.8531 11.3375 12.9937 11.6656 12.9937 11.9969C12.9937 12.3281 12.8531 12.6562 12.5656 12.8219L12.4719 12.875C12.275 12.9875 12.175 13.2219 12.2594 13.4344C12.325 13.6062 12.4031 13.7688 12.4906 13.9281L12.5656 14.0562C12.6594 14.2156 12.7656 14.3656 12.8813 14.5094C13.025 14.6875 13.2781 14.7187 13.475 14.6031L13.5656 14.55C13.8531 14.3844 14.2031 14.425 14.4906 14.5906C14.7781 14.7562 14.9937 15.0437 14.9937 15.375V15.4812C14.9937 15.7094 15.1469 15.9125 15.3719 15.9469C15.575 15.9781 15.7812 15.9937 15.9937 15.9937C16.2062 15.9937 16.4125 15.9781 16.6156 15.9469C16.8406 15.9125 16.9937 15.7094 16.9937 15.4812V15.375C16.9937 15.0437 17.2094 14.7562 17.4969 14.5906C17.7844 14.425 18.1344 14.3844 18.4219 14.55L18.5125 14.6031C18.7094 14.7156 18.9625 14.6844 19.1063 14.5094C19.2219 14.3656 19.3281 14.2156 19.4219 14.0562L19.4969 13.925C19.5844 13.7656 19.6625 13.6031 19.7281 13.4312C19.8094 13.2187 19.7125 12.9844 19.5156 12.8719L19.4219 12.8188C19.1344 12.6531 18.9937 12.325 18.9937 11.9937C18.9937 11.6625 19.1344 11.3344 19.4219 11.1687L19.5156 11.1156L19.5187 11.1219ZM14.75 12C14.75 11.6685 14.8817 11.3505 15.1161 11.1161C15.3505 10.8817 15.6685 10.75 16 10.75C16.3315 10.75 16.6495 10.8817 16.8839 11.1161C17.1183 11.3505 17.25 11.6685 17.25 12C17.25 12.3315 17.1183 12.6495 16.8839 12.8839C16.6495 13.1183 16.3315 13.25 16 13.25C15.6685 13.25 15.3505 13.1183 15.1161 12.8839C14.8817 12.6495 14.75 12.3315 14.75 12Z" fill="white"/>
</svg>
