<svg width="16" height="16" viewBox="0 0 16 16" fill="none" xmlns="http://www.w3.org/2000/svg">
<path d="M4 2.5C2.35 2.5 1 3.85 1 5.5C1 6.5 1.5 7.4 2.25 7.9C0.9 8.6 0 9.95 0 11.5H1C1 9.85 2.35 8.5 4 8.5C5.65 8.5 7 9.85 7 11.5H8C8 9.9 9.3 8.55 10.9 8.5H11C12.25 8.5 13.3 7.75 13.75 6.7C13.75 6.7 13.75 6.65 13.8 6.65C13.85 6.6 13.85 6.5 13.85 6.45C13.85 6.4 13.85 6.4 13.9 6.35C13.9 6.3 13.95 6.2 13.95 6.15C13.95 6.1 13.95 6.05 14 6C14 5.95 14 5.9 14.05 5.85V5.55C14.05 3.9 12.7 2.55 11.05 2.55C9.4 2.55 8.05 3.9 8.05 5.55C8.05 6.55 8.55 7.45 9.3 7.95C8.55 8.3 7.95 8.9 7.55 9.6C7.15 8.9 6.55 8.3 5.8 7.95C6.5 7.4 7 6.5 7 5.5C7 3.85 5.65 2.5 4 2.5ZM4 3.5C5.1 3.5 6 4.4 6 5.5C6 6.6 5.1 7.5 4 7.5C2.9 7.5 2 6.6 2 5.5C2 4.4 2.9 3.5 4 3.5ZM11 3.5C12.1 3.5 13 4.4 13 5.5C13 6.6 12.1 7.5 11 7.5C9.9 7.5 9 6.6 9 5.5C9 4.4 9.9 3.5 11 3.5ZM12.05 9V10.05C11.75 10.1 11.45 10.25 11.2 10.4L10.45 9.65L9.75 10.35L10.5 11.1C10.3 11.35 10.2 11.65 10.15 12H9V13H10.05C10.1 13.3 10.25 13.6 10.4 13.9L9.65 14.65L10.35 15.35L11.1 14.6C11.35 14.75 11.65 14.9 11.95 14.95V16H12.95V14.95C13.25 14.9 13.55 14.75 13.8 14.6L14.55 15.35L15.25 14.65L14.5 13.9C14.7 13.65 14.8 13.35 14.85 13H16V12H14.95C14.9 11.7 14.75 11.4 14.6 11.1L15.35 10.35L14.65 9.65L13.9 10.4C13.65 10.25 13.35 10.1 13.05 10.05V9H12.05ZM12.5 11C13.35 11 14 11.65 14 12.5C14 13.35 13.35 14 12.5 14C11.65 14 11 13.35 11 12.5C11 11.65 11.65 11 12.5 11ZM12.5 12C12.4365 12.0012 12.3739 12.0159 12.3165 12.043C12.2568 12.0709 12.2026 12.1094 12.1565 12.1565C12.1094 12.2026 12.0709 12.2568 12.043 12.3165C12.0159 12.3739 12.0012 12.4365 12 12.5C12.0007 12.5633 12.015 12.6245 12.043 12.6835C12.0705 12.742 12.1095 12.797 12.1565 12.8435C12.203 12.8905 12.258 12.9295 12.3165 12.957C12.3739 12.9841 12.4365 12.9988 12.5 13C12.75 13 13 12.75 13 12.5C13 12.25 12.75 12 12.5 12Z" fill="black"/>
</svg>
